HIERARCHY
ROOT Hips
{
	OFFSET 49.718800 -26.048416 96.495094
	CHANNELS 6 Xposition Yposition Zposition Xrotation Yrotation Zrotation
	JOINT spine
	{
		OFFSET 0.000000 -0.467661 8.132492
		CHANNELS 3 Xrotation Yrotation Zrotation
		JOINT spine1
		{
			OFFSET 0.000000 -0.000002 10.349800
			CHANNELS 3 Xrotation Yrotation Zrotation
			JOINT spine2
			{
				OFFSET 0.000000 -0.000002 9.916992
				CHANNELS 3 Xrotation Yrotation Zrotation
				JOINT Neck
				{
					OFFSET 0.000000 -1.213903 25.461014
					CHANNELS 3 Xrotation Yrotation Zrotation
					JOINT Head
					{
						OFFSET 0.000000 -0.000002 7.692444
						CHANNELS 3 Xrotation Yrotation Zrotation
						End Site
						{
							OFFSET 0.000000 6.140629 18.619995
						}
					}
				}
				JOINT RightShoulder
				{
					OFFSET -4.175751 0.581444 10.709610
					CHANNELS 3 Xrotation Yrotation Zrotation
					JOINT RightArm
					{
						OFFSET 0.000000 -0.000002 14.046600
						CHANNELS 3 Xrotation Yrotation Zrotation
						JOINT RightArmRoll
						{
							OFFSET 0.000000 0.000000 7.090988
							CHANNELS 3 Xrotation Yrotation Zrotation
							JOINT RightForeArm
							{
								OFFSET 0.000000 -0.000004 20.653503
								CHANNELS 3 Xrotation Yrotation Zrotation
								JOINT RightForeArmRoll
								{
									OFFSET 0.000000 -0.000002 7.957184
									CHANNELS 3 Xrotation Yrotation Zrotation
									JOINT RightHand
									{
										OFFSET 0.000000 -0.000002 15.968292
										CHANNELS 3 Xrotation Yrotation Zrotation
										End Site
										{
											OFFSET 0.000000 0.000000 0.100006
										}
									}
								}
							}
						}
					}
				}
				JOINT LeftShoulder
				{
					OFFSET 4.175751 0.581444 10.709610
					CHANNELS 3 Xrotation Yrotation Zrotation
					JOINT LeftArm
					{
						OFFSET 0.000000 -0.000002 14.046600
						CHANNELS 3 Xrotation Yrotation Zrotation
						JOINT LeftArmRoll
						{
							OFFSET 0.000000 0.000000 7.090973
							CHANNELS 3 Xrotation Yrotation Zrotation
							JOINT LeftForeArm
							{
								OFFSET 0.000000 -0.000004 20.653503
								CHANNELS 3 Xrotation Yrotation Zrotation
								JOINT LeftForeArmRoll
								{
									OFFSET 0.000000 -0.000002 7.957184
									CHANNELS 3 Xrotation Yrotation Zrotation
									JOINT LeftHand
									{
										OFFSET 0.000000 -0.000002 15.968307
										CHANNELS 3 Xrotation Yrotation Zrotation
										End Site
										{
											OFFSET 0.000000 0.000000 0.100006
										}
									}
								}
							}
						}
					}
				}
			}
		}
	}
	JOINT RightUpLeg
	{
		OFFSET -7.208340 1.108841 -1.321823
		CHANNELS 3 Xrotation Yrotation Zrotation
		JOINT RightUpLegRoll
		{
			OFFSET 0.000000 -0.000004 18.723801
			CHANNELS 3 Xrotation Yrotation Zrotation
			JOINT RightLeg
			{
				OFFSET 0.000000 0.000004 -23.186600
				CHANNELS 3 Xrotation Yrotation Zrotation
				JOINT RightLegRoll
				{
					OFFSET 0.000000 -0.000004 23.262398
					CHANNELS 3 Xrotation Yrotation Zrotation
					JOINT RightFoot
					{
						OFFSET 0.000000 -0.000002 19.362106
						CHANNELS 3 Xrotation Yrotation Zrotation
						JOINT RightToeBase
						{
							OFFSET 0.000000 -0.000004 16.185699
							CHANNELS 3 Xrotation Yrotation Zrotation
							End Site
							{
								OFFSET 0.006859 0.903522 7.838623
							}
						}
					}
				}
			}
		}
	}
	JOINT LeftUpLeg
	{
		OFFSET 7.208340 1.108841 -1.321823
		CHANNELS 3 Xrotation Yrotation Zrotation
		JOINT LeftUpLegRoll
		{
			OFFSET 0.000000 -0.000004 18.723900
			CHANNELS 3 Xrotation Yrotation Zrotation
			JOINT LeftLeg
			{
				OFFSET 0.000000 -0.000004 23.186508
				CHANNELS 3 Xrotation Yrotation Zrotation
				JOINT LeftLegRoll
				{
					OFFSET 0.000000 -0.000004 23.477509
					CHANNELS 3 Xrotation Yrotation Zrotation
					JOINT LeftFoot
					{
						OFFSET 0.000000 -0.000002 19.147003
						CHANNELS 3 Xrotation Yrotation Zrotation
						JOINT LeftToeBase
						{
							OFFSET 0.000000 -0.000004 16.185699
							CHANNELS 3 Xrotation Yrotation Zrotation
							End Site
							{
								OFFSET -0.030746 0.903522 7.838623
							}
						}
					}
				}
			}
		}
	}
}
MOTION
Frames: 7
Frame Time: 0.041667
53.617901 -12.992816 95.820595 -4.537560 0.272862 0.407710 -0.998072 -0.351622 0.215906 2.012155 -0.712919 0.439575 3.657261 -0.707651 0.447994 15.417402 1.552644 -6.023105 4.333880 -1.317294 -5.941858 -18.450047 -54.996004 -21.799081 -37.307026 -121.482373 -18.646435 0.000002 0.000012 -0.000009 3.526181 -9.240746 -0.428406 0.000006 0.000006 -3.000001 -5.000229 -7.998874 0.000139 -13.569192 59.174396 16.035764 -38.932314 118.791975 29.126348 -0.000001 -0.000006 0.000004 0.074114 9.239934 0.911851 0.000005 -0.000004 3.022409 -5.000222 7.998853 -0.000139 -0.820333 -174.604552 3.998850 -179.999991 0.000005 -0.928996 167.797872 -3.291106 -0.821266 0.000001 0.000004 0.019571 70.533110 5.849278 4.844598 25.456854 -7.345831 -0.000006 0.546214 176.298179 -0.068818 -0.000005 0.000011 -0.954864 -13.299863 1.276084 0.779919 0.000001 -0.000000 -0.168098 73.421317 -5.808217 -4.953237 25.456911 7.348229 0.000000 
53.618000 -12.997711 95.792702 -4.533982 0.271896 0.407978 -0.997656 -0.351614 0.216144 2.012686 -0.712251 0.439377 3.657789 -0.706982 0.447795 15.423114 1.553304 -6.020703 4.322116 -1.317493 -5.939463 -18.449811 -54.988299 -21.798723 -37.296740 -121.493588 -18.634539 0.000003 0.000013 -0.000006 3.520562 -9.238088 -0.428959 0.000004 0.000007 -3.000000 -5.000230 -7.998873 0.000139 -13.578657 59.175420 16.046959 -38.942324 118.795377 29.148396 -0.000000 -0.000007 0.000003 0.074115 9.245693 0.911879 0.000005 -0.000003 3.022410 -5.000223 7.998854 -0.000139 -0.824760 -174.604552 3.998803 -179.999991 0.000005 -0.928997 167.793269 -3.291050 -0.821530 0.000001 0.000003 0.019571 70.537003 5.848992 4.843545 25.456861 -7.345833 -0.000006 0.542196 176.299163 -0.065969 -0.000005 0.000010 -0.954871 -13.298752 1.274172 0.780138 0.000001 0.000000 -0.168098 73.419711 -5.807264 -4.955480 25.456912 7.348229 -0.000000 
53.618900 -12.991915 95.796799 -4.530601 0.270842 0.408365 -0.997227 -0.351606 0.216385 2.013235 -0.711533 0.439196 3.658349 -0.706262 0.447612 15.429015 1.553530 -6.018389 4.309821 -1.317246 -5.937216 -18.449827 -54.980752 -21.798714 -37.286457 -121.504803 -18.622760 0.000005 0.000013 -0.000008 3.514801 -9.235537 -0.429518 0.000005 0.000006 -3.000001 -5.000228 -7.998871 0.000143 -13.588017 59.176342 16.058043 -38.953296 118.797945 29.171916 -0.000002 -0.000007 0.000004 0.074115 9.251602 0.911877 0.000004 -0.000003 3.022410 -5.000222 7.998854 -0.000138 -0.828525 -174.603555 3.998934 -179.999991 0.000005 -0.928996 167.789252 -3.291974 -0.821972 0.000001 0.000003 0.019567 70.540677 5.848692 4.842501 25.456858 -7.345833 -0.000006 0.538726 176.300160 -0.062913 -0.000005 0.000011 -0.954882 -13.296738 1.272041 0.780368 0.000001 0.000000 -0.168098 73.417567 -5.806269 -4.957846 25.456912 7.348229 0.000000 
53.614899 -12.995112 95.819901 -4.527358 0.269726 0.408837 -0.996784 -0.351598 0.216628 2.013804 -0.710778 0.439027 3.658918 -0.705506 0.447441 15.435015 1.553447 -6.016139 4.297157 -1.316699 -5.935072 -18.450016 -54.973174 -21.798914 -37.276338 -121.516073 -18.611318 0.000002 0.000013 -0.000008 3.508951 -9.233076 -0.430080 0.000005 0.000006 -3.000000 -5.000228 -7.998873 0.000137 -13.597351 59.177285 16.069068 -38.963115 118.801305 29.194332 -0.000003 -0.000007 0.000004 0.074111 9.257614 0.911848 0.000006 -0.000003 3.022410 -5.000224 7.998854 -0.000140 -0.831822 -174.602571 3.999209 -179.999991 0.000005 -0.928996 167.785742 -3.291931 -0.822173 0.000001 0.000003 0.019560 70.544338 5.848328 4.841443 25.456858 -7.345831 -0.000005 0.535645 176.302168 -0.059701 -0.000005 0.000011 -0.954895 -13.294227 1.269738 0.780606 0.000001 0.000000 -0.168098 73.415074 -5.805202 -4.960418 25.456914 7.348230 -0.000001 
53.623699 -12.986712 95.810097 -4.524210 0.268575 0.409358 -0.996335 -0.351591 0.216871 2.014385 -0.710003 0.438864 3.659498 -0.704729 0.447276 15.441118 1.553179 -6.013926 4.284284 -1.315963 -5.932985 -18.450421 -54.965674 -21.799351 -37.267223 -121.526537 -18.601148 0.000005 0.000012 -0.000009 3.503050 -9.230669 -0.430643 0.000005 0.000008 -2.999999 -5.000229 -7.998870 0.000140 -13.606623 59.178132 16.080031 -38.973104 118.804720 29.217019 -0.000001 -0.000007 0.000002 0.074118 9.263674 0.911810 0.000006 -0.000003 3.022411 -5.000224 7.998853 -0.000139 -0.834850 -174.601560 3.999560 -179.999991 0.000005 -0.928997 167.782422 -3.292864 -0.822574 0.000001 0.000003 0.019551 70.547904 5.847991 4.840401 25.456861 -7.345833 -0.000006 0.532786 176.303151 -0.056415 -0.000005 0.000011 -0.954910 -13.291313 1.267350 0.780849 0.000000 -0.000000 -0.168098 73.412465 -5.804076 -4.963090 25.456914 7.348230 -0.000000 
53.618595 -12.988714 95.811798 -4.521068 0.267415 0.409889 -0.995885 -0.351584 0.217115 2.014964 -0.709222 0.438704 3.660077 -0.703947 0.447113 15.447316 1.552882 -6.011712 4.271348 -1.315189 -5.930912 -18.450819 -54.958164 -21.799788 -37.256950 -121.537766 -18.589676 0.000005 0.000013 -0.000008 3.497129 -9.228271 -0.431207 0.000005 0.000007 -3.000000 -5.000228 -7.998873 0.000140 -13.615930 59.179061 16.091045 -38.982932 118.808067 29.239610 -0.000003 -0.000006 0.000003 0.074115 9.269753 0.911768 0.000007 -0.000003 3.022410 -5.000225 7.998854 -0.000139 -0.837809 -174.600577 3.999937 -179.999991 0.000005 -0.928996 167.779212 -3.292824 -0.822758 0.000001 0.000003 0.019543 70.551380 5.847684 4.839365 25.456860 -7.345831 -0.000005 0.529984 176.305160 -0.053099 -0.000005 0.000011 -0.954924 -13.288300 1.264942 0.781094 -0.000000 -0.000000 -0.168098 73.409767 -5.802984 -4.965770 25.456911 7.348229 0.000000 
53.615299 -12.995715 95.811386 -4.517887 0.266274 0.410398 -0.995440 -0.351576 0.217359 2.015534 -0.708451 0.438540 3.660647 -0.703175 0.446947 15.453417 1.552663 -6.009490 4.258537 -1.314502 -5.928807 -18.451220 -54.950658 -21.800210 -37.246855 -121.549036 -18.578355 0.000006 0.000013 -0.000007 3.491237 -9.225841 -0.431771 0.000004 0.000007 -3.000001 -5.000230 -7.998872 0.000139 -13.625202 59.179901 16.102005 -38.994052 118.810703 29.263580 -0.000003 -0.000007 0.000002 0.074117 9.275802 0.911731 0.000007 -0.000003 3.022410 -5.000221 7.998854 -0.000140 -0.840908 -174.599579 4.000271 -179.999991 0.000005 -0.928996 167.775906 -3.292784 -0.822948 0.000001 0.000004 0.019534 70.554946 5.847377 4.838223 25.456863 -7.345831 -0.000005 0.527066 176.306157 -0.049834 -0.000005 0.000011 -0.954939 -13.285487 1.262573 0.781335 -0.000000 0.000000 -0.168098 73.407246 -5.801856 -4.968337 25.456909 7.348232 -0.000001 
